<svg id="content_copy_black_24dp" xmlns="http://www.w3.org/2000/svg" width="15" height="15" viewBox="0 0 15 15">
  <path id="Path_3553" data-name="Path 3553" d="M0,0H15V15H0Z" fill="none"/>
  <path id="Path_3554" data-name="Path 3554" d="M10.75,1H3.25A1.254,1.254,0,0,0,2,2.25V11H3.25V2.25h7.5Zm1.875,2.5H5.75A1.254,1.254,0,0,0,4.5,4.75V13.5a1.254,1.254,0,0,0,1.25,1.25h6.875a1.254,1.254,0,0,0,1.25-1.25V4.75a1.254,1.254,0,0,0-1.25-1.25Zm0,10H5.75V4.75h6.875Z" transform="translate(-0.75 -0.375)"/>
</svg>
