<svg xmlns="http://www.w3.org/2000/svg" width="175.3" height="36.182" viewBox="0 0 175.3 36.182">
  <g id="Logo" transform="translate(-228.17 -23)">
    <g id="xpx" transform="translate(-11.83 2.121)">
      <path id="Path_1" data-name="Path 1" d="M105,57.306c4.848-1.38,6.9-1.024,10.686-.631A37.8,37.8,0,0,0,99.573,53c-.829,0-1.661.03-2.483.086a14.9,14.9,0,0,1,3.348,2.516c.575.588,1.76,1.965,2.569,2.107a5.314,5.314,0,0,0,1.995-.4" transform="translate(157.497 -32.121)" fill="#f06623" fill-rule="evenodd"/>
      <path id="Path_2" data-name="Path 2" d="M130,87.857c-.419-1.866-.977-3.722-1.555-5.5-.3-.931-.631-1.849-.954-2.771-.317-.9-.667-1.793-1.034-2.678-1.618-3.794-1.45-3.811,1.509-5.518,2.008-1.024,5.165-2.47,7.423-2.358.079,0,.155.01.234.016A34.376,34.376,0,0,1,130,87.857" transform="translate(138.509 -42.852)" fill="#79b6e3" fill-rule="evenodd"/>
      <path id="Path_3" data-name="Path 3" d="M63.9,98.658c1.922-1.512,4.072-2.959,5.634-3.946a67.625,67.625,0,0,1,6.446-3.51,7.934,7.934,0,0,1,2.265-.835,1.625,1.625,0,0,1,.7.076c.71.3,1.9,2.219,1.9,2.219l.013.02c.211.31.4.634.624.935.234.324.452.69.66,1.03q.471.768.925,1.539c.5.835,1.03,1.707,1.473,2.566.736,1.43,1.767,3.454,2.652,5.62a34.353,34.353,0,0,1-9.365,8.355l-.489.3-.489-.3A34.336,34.336,0,0,1,63.9,98.658" transform="translate(179.727 -57.144)" fill="#1fb4ac" fill-rule="evenodd"/>
      <path id="Path_4" data-name="Path 4" d="M63.94,54.54c.178.195.347.386.5.568.34.406.667.835.987,1.258a14.669,14.669,0,0,1,1.067,1.5,31.5,31.5,0,0,1,1.691,2.807,1.528,1.528,0,0,1,.109.736.99.99,0,0,1-.357.512c-.37.3-.548.4-.862.627-1.38,1.01-2.7,2.087-4.035,3.147-1.5,1.189-2.982,2.589-4.356,3.92-.944.918-2.014,2.018-3.008,3.183A34.35,34.35,0,0,1,52.92,58.734l.01-.581.522-.254A38.9,38.9,0,0,1,63.94,54.54" transform="translate(187.085 -33.153)" fill="#f3a91d" fill-rule="evenodd"/>
    </g>
    <path id="Path_11" data-name="Path 11" d="M.948,0H3.255V-3.537H5.194c2.509,0,3.968-1.5,3.968-3.675a3.556,3.556,0,0,0-3.91-3.7H.948ZM3.255-5.385V-9.023H4.81A1.723,1.723,0,0,1,6.786-7.212,1.733,1.733,0,0,1,4.821-5.385ZM10.621,0h2.269V-4.629a1.624,1.624,0,0,1,1.646-1.689,1.686,1.686,0,0,1,.772.192L15.991-8a2.154,2.154,0,0,0-1.119-.3,1.983,1.983,0,0,0-1.966,1.545h-.085V-8.182h-2.2Zm9.743.16a3.87,3.87,0,0,0,4.027-4.219c0-2.536-1.545-4.229-4.027-4.229s-4.027,1.694-4.027,4.229A3.87,3.87,0,0,0,20.364.16ZM20.375-1.6c-1.145,0-1.731-1.049-1.731-2.477s.586-2.482,1.731-2.482c1.124,0,1.71,1.055,1.71,2.482S21.5-1.6,20.375-1.6Zm7.09-6.584H25.121l2.344,4.091L25.036,0h2.344l1.587-2.828L30.581,0H32.9L30.463-4.091l2.37-4.091H30.506l-1.539,2.86ZM34.176,0h2.269V-8.182H34.176Zm1.14-9.236a1.2,1.2,0,0,0,1.23-1.151,1.2,1.2,0,0,0-1.23-1.145,1.193,1.193,0,0,0-1.225,1.145A1.194,1.194,0,0,0,35.316-9.236ZM38.256,0h2.269V-4.911a1.371,1.371,0,0,1,1.332-1.507A1.2,1.2,0,0,1,43.1-5.1V0h2.2V-5a1.277,1.277,0,0,1,1.31-1.422,1.217,1.217,0,0,1,1.268,1.364V0h2.264V-5.5a2.5,2.5,0,0,0-2.578-2.786A2.486,2.486,0,0,0,45.1-6.738h-.085a2.159,2.159,0,0,0-2.221-1.55,2.3,2.3,0,0,0-2.28,1.55h-.1V-8.182H38.256ZM54.268.154A2.512,2.512,0,0,0,56.66-1.135h.064V0h2.152V-5.518c0-1.95-1.651-2.77-3.473-2.77-1.96,0-3.249.937-3.564,2.429l2.1.17a1.369,1.369,0,0,1,1.454-.943c.772,0,1.214.389,1.214,1.06v.032c0,.527-.559.6-1.982.735-1.619.149-3.074.692-3.074,2.52C51.552-.666,52.708.154,54.268.154Zm.65-1.566c-.7,0-1.2-.325-1.2-.948,0-.639.527-.953,1.326-1.065a5.457,5.457,0,0,0,1.577-.368v.868A1.57,1.57,0,0,1,54.918-1.412Zm7.926-9.5H60.229l3.35,5.455L60.165,0h2.642l2.237-3.723h.085L67.367,0H70.02l-3.4-5.455,3.329-5.455h-2.6L65.13-7.191h-.085ZM8.239,10.674h2.653C10.854,8.341,8.936,6.73,6.021,6.73c-2.87,0-4.973,1.585-4.96,3.963-.006,1.93,1.355,3.036,3.567,3.567l1.425.358c1.425.345,2.218.754,2.224,1.636-.006.959-.914,1.611-2.32,1.611-1.438,0-2.474-.665-2.563-1.975H.716c.07,2.832,2.1,4.3,5.273,4.3,3.2,0,5.075-1.528,5.082-3.925-.006-2.18-1.649-3.337-3.925-3.848L5.97,12.131c-1.138-.262-2.09-.684-2.071-1.624,0-.844.748-1.464,2.1-1.464C7.325,9.044,8.137,9.645,8.239,10.674ZM12.874,20H15.6V10.182H12.874ZM14.241,8.916a1.435,1.435,0,0,0,1.477-1.381,1.477,1.477,0,0,0-2.947,0A1.433,1.433,0,0,0,14.241,8.916ZM17.77,20h2.723V14.445a1.982,1.982,0,0,1,2.084-2.039,4.58,4.58,0,0,1,1.151.147V10.137a4.087,4.087,0,0,0-.857-.1,2.385,2.385,0,0,0-2.359,1.854h-.1V10.182H17.77Zm7.357,0H27.85V10.182H25.127ZM26.5,8.916a1.435,1.435,0,0,0,1.477-1.381,1.477,1.477,0,0,0-2.947,0A1.433,1.433,0,0,0,26.5,8.916Zm9.825,6.9a1.849,1.849,0,0,1-1.873,2.007,1.68,1.68,0,0,1-1.7-1.879V10.182H30.023v6.251c.006,2.295,1.349,3.695,3.324,3.695a3.013,3.013,0,0,0,2.979-1.911h.1V20h2.614V10.182H36.32Zm13.065-2.838c-.243-1.809-1.7-2.928-4.18-2.928-2.512,0-4.168,1.163-4.161,3.055-.006,1.47.92,2.423,2.838,2.806l1.7.339c.857.173,1.246.486,1.259.978-.013.582-.646,1-1.6,1a1.6,1.6,0,0,1-1.783-1.214l-2.678.141c.256,1.879,1.854,3.036,4.455,3.036,2.544,0,4.366-1.3,4.372-3.234-.006-1.419-.933-2.269-2.838-2.659l-1.777-.358c-.914-.2-1.253-.511-1.246-.984-.006-.588.658-.972,1.5-.972a1.534,1.534,0,0,1,1.643,1.151ZM55.553,20H64.4V17.718H58.321V14.592h5.6V12.31h-5.6V9.191h6.053V6.909H55.553ZM68.8,10.182H65.991L68.8,15.091,65.889,20H68.7l1.9-3.394L72.543,20h2.781L72.4,15.091l2.844-4.909H72.454l-1.847,3.433Zm8.054,13.5h2.723V18.428h.083a2.9,2.9,0,0,0,2.787,1.732c2.237,0,3.982-1.771,3.982-5.056,0-3.375-1.822-5.05-3.976-5.05a2.893,2.893,0,0,0-2.793,1.777h-.121V10.182H76.858Zm2.665-8.591c0-1.751.741-2.87,2.065-2.87,1.349,0,2.065,1.17,2.065,2.87s-.729,2.9-2.065,2.9C80.278,17.993,79.523,16.842,79.523,15.091ZM90.965,6.909H88.242V20h2.723Zm6.609,13.283c2.979,0,4.832-2.039,4.832-5.062,0-3.043-1.854-5.075-4.832-5.075s-4.832,2.033-4.832,5.075C92.742,18.153,94.6,20.192,97.575,20.192Zm.013-2.109c-1.374,0-2.077-1.259-2.077-2.972s.7-2.979,2.077-2.979c1.349,0,2.052,1.266,2.052,2.979S98.936,18.082,97.587,18.082Zm6.6,1.918h2.723V14.445a1.949,1.949,0,0,1,1.975-2.026,2.023,2.023,0,0,1,.927.23l.818-2.25a2.584,2.584,0,0,0-1.342-.358,2.38,2.38,0,0,0-2.359,1.854h-.1V10.182h-2.64Zm11.729.192c2.429,0,4.065-1.183,4.449-3l-2.518-.166a1.849,1.849,0,0,1-1.886,1.138,2.135,2.135,0,0,1-2.224-2.365v-.006h6.686V15.04c0-3.337-2.02-4.986-4.615-4.986-2.889,0-4.762,2.052-4.762,5.082C111.043,18.249,112.89,20.192,115.913,20.192Zm-2.18-6.092a2.074,2.074,0,0,1,2.116-2.013,1.935,1.935,0,0,1,2.007,2.013ZM122.2,20h2.723V14.445a1.949,1.949,0,0,1,1.975-2.026,2.023,2.023,0,0,1,.927.23l.818-2.25a2.584,2.584,0,0,0-1.342-.358,2.38,2.38,0,0,0-2.359,1.854h-.1V10.182H122.2Z" transform="translate(274.83 35.5)" fill="#fff"/>
  </g>
</svg>
