<?xml version="1.0" encoding="utf-8"?>
<!-- Svg Vector Icons : http://www.onlinewebfonts.com/icon -->
<!DOCTYPE svg PUBLIC "-//W3C//DTD SVG 1.1//EN" "http://www.w3.org/Graphics/SVG/1.1/DTD/svg11.dtd">
<svg version="1.1" xmlns="http://www.w3.org/2000/svg" xmlns:xlink="http://www.w3.org/1999/xlink" x="0px" y="0px" viewBox="0 0 1000 1000" enable-background="new 0 0 1000 1000" xml:space="preserve">
<metadata> Svg Vector Icons : http://www.onlinewebfonts.com/icon </metadata>
<g><path d="M875.2,811.6H633.3V680.4h241.9V340.1h-98.4c-28.7-4.1-32.8-36.9-32.8-65.6s4.1-61.5,32.8-65.6h98.4c65.6,0,114.8,57.4,114.8,123v352.6C990,750.1,940.8,811.6,875.2,811.6 M370.8,12.1l287,262.4l-287,258.3V12.1L370.8,12.1z M128.9,680.4h110.7c20.5,8.2,16.4,36.9,16.4,61.5c0,20.5,0,45.1-16.4,53.3h-98.4C75.6,795.2,10,746,10,680.4V340.1c0-65.6,61.5-131.2,131.2-131.2h229.6v131.2H128.9V680.4L128.9,680.4z M633.3,987.9L338,737.8L633.3,500V987.9L633.3,987.9z"/></g>
</svg>