<svg width="24" height="24" viewBox="0 -960 960 960" xmlns="http://www.w3.org/2000/svg" xmlns:xlink="http://www.w3.org/1999/xlink" overflow="hidden"><path d="M480-40C405.333-40 336.667-57 274-91 211.333-125 160-170.333 120-227L120-120 40-120 40-360 280-360 280-280 181-280C213-232 255.167-193.333 307.5-164 359.833-134.667 417.333-120 480-120 530-120 576.833-129.5 620.5-148.5 664.167-167.5 702.167-193.167 734.5-225.5 766.833-257.833 792.5-295.833 811.5-339.5 830.5-383.167 840-430 840-480L920-480C920-419.333 908.5-362.333 885.5-309 862.5-255.667 831-209 791-169 751-129 704.333-97.5 651-74.5 597.667-51.5 540.667-40 480-40ZM444-200 444-252C412.667-259.333 387.167-272.833 367.5-292.5 347.833-312.167 333.333-338 324-370L390-396C398-368.667 410.5-348.167 427.5-334.5 444.5-320.833 464-314 486-314 508-314 526.833-319.167 542.5-329.5 558.167-339.833 566-356 566-378 566-397.333 557.833-413 541.5-425 525.167-437 496-450.667 454-466 414.667-480 385.833-496.667 367.5-516 349.167-535.333 340-560.667 340-592 340-619.333 349.5-644.167 368.5-666.5 387.5-688.833 413.333-703.333 446-710L446-760 516-760 516-710C540-708 561.833-698.333 581.5-681 601.167-663.667 614.667-643.333 622-620L558-594C552.667-609.333 544-622.167 532-632.5 520-642.833 503.333-648 482-648 458.667-648 440.833-643 428.5-633 416.167-623 410-609.333 410-592 410-574.667 417.667-561 433-551 448.333-541 476-529.333 516-516 564-498.667 596-478.333 612-455 628-431.667 636-406 636-378 636-358.667 632.667-341.667 626-327 619.333-312.333 610.5-299.833 599.5-289.5 588.5-279.167 575.667-270.833 561-264.5 546.333-258.167 530.667-253.333 514-250L514-200 444-200ZM40-480C40-540.667 51.5-597.667 74.5-651 97.5-704.333 129-751 169-791 209-831 255.667-862.5 309-885.5 362.333-908.5 419.333-920 480-920 554.667-920 623.333-903 686-869 748.667-835 800-789.667 840-733L840-840 920-840 920-600 680-600 680-680 779-680C747-728 704.833-766.667 652.5-796 600.167-825.333 542.667-840 480-840 430-840 383.167-830.5 339.5-811.5 295.833-792.5 257.833-766.833 225.5-734.5 193.167-702.167 167.5-664.167 148.5-620.5 129.5-576.833 120-530 120-480L40-480Z" fill="#FFFFFF"/></svg>