<svg xmlns="http://www.w3.org/2000/svg" width="14.63" height="15.006" viewBox="0 0 14.63 15.006">
  <g id="xpx" transform="translate(-1450.002 -107.043)">
    <g id="ProximaX_Logo_RGB" transform="translate(1450 107.043)">
      <g id="Group_1" data-name="Group 1">
        <path id="Path_1" data-name="Path 1" d="M100.481,54.845a9.662,9.662,0,0,1,4.58-.27A16.2,16.2,0,0,0,98.154,53c-.355,0-.712.013-1.064.037a6.386,6.386,0,0,1,1.435,1.078c.246.252.754.842,1.1.9a2.277,2.277,0,0,0,.855-.173" transform="translate(-90.838 -53)" fill="#f06623" fill-rule="evenodd"/>
        <path id="Path_2" data-name="Path 2" d="M127.4,77.094c-.18-.8-.419-1.6-.667-2.359-.129-.4-.27-.793-.409-1.187s-.286-.768-.443-1.148c-.693-1.626-.621-1.633.647-2.365a7.572,7.572,0,0,1,3.181-1.01l.1.007A14.733,14.733,0,0,1,127.4,77.1" transform="translate(-115.177 -66.754)" fill="#79b6e3" fill-rule="evenodd"/>
        <path id="Path_3" data-name="Path 3" d="M63.9,93.916c.824-.648,1.745-1.268,2.414-1.691a28.982,28.982,0,0,1,2.763-1.5,3.4,3.4,0,0,1,.971-.358.7.7,0,0,1,.3.033c.3.129.814.951.814.951l.006.008c.091.133.173.272.268.4s.194.3.283.442l.4.66c.212.358.442.732.631,1.1.316.613.757,1.48,1.136,2.409a14.723,14.723,0,0,1-4.014,3.581l-.209.127-.209-.127A14.715,14.715,0,0,1,63.9,93.916" transform="translate(-62.345 -85.072)" fill="#1fb4ac" fill-rule="evenodd"/>
        <path id="Path_4" data-name="Path 4" d="M57.64,54.54c.076.084.149.166.214.243.146.174.286.358.423.539a6.288,6.288,0,0,1,.457.641,13.5,13.5,0,0,1,.725,1.2.655.655,0,0,1,.047.316.424.424,0,0,1-.153.219c-.159.13-.235.17-.369.269-.592.433-1.156.894-1.729,1.349-.641.509-1.278,1.11-1.867,1.68-.4.393-.863.865-1.289,1.364a14.721,14.721,0,0,1-1.18-6.026v-.249l.224-.109a16.67,16.67,0,0,1,4.5-1.436" transform="translate(-52.915 -54.322)" fill="#f3a91d" fill-rule="evenodd"/>
      </g>
    </g>
  </g>
</svg>
