<?xml version="1.0" standalone="no"?>
<!DOCTYPE svg PUBLIC "-//W3C//DTD SVG 1.1//EN" "http://www.w3.org/Graphics/SVG/1.1/DTD/svg11.dtd">
<!--Generator: Xara Designer (www.xara.com), SVG filter version: 6.6.0.1-->
<svg fill="none" fill-rule="evenodd" stroke="black" stroke-width="0.501" stroke-linejoin="bevel" stroke-miterlimit="10" font-family="Times New Roman" font-size="16" style="font-variant-ligatures:none" xmlns:xlink="http://www.w3.org/1999/xlink" xmlns="http://www.w3.org/2000/svg" version="1.1" overflow="visible" width="375pt" height="200pt" viewBox="0 -300 375 200">
 <defs>
	</defs>
 <g id="Layer 1" transform="scale(1 -1)">
  <g id="Group" letter-spacing="0.05em" font-weight="bold" font-family="Orbitron SemiBold" stroke="none">
   <path d="M 60.155,229.089 L 80.852,205.365 L 45.422,184.061 L 43.302,221.425 L 60.155,229.089 Z" stroke-linejoin="miter" stroke-width="0.325" fill="#0049e3" marker-start="none" marker-end="none"/>
   <path d="M 73.774,235.278 L 100.779,216.763 L 91.755,210.19 L 71.914,234.432 L 73.774,235.278 Z" stroke-linejoin="miter" stroke-width="0.325" fill="#64abff" marker-start="none" marker-end="none"/>
   <path d="M 105.322,206.921 L 108.034,187.749 L 98.147,200.692 L 105.322,206.921 Z" stroke-linejoin="miter" stroke-width="0.325" fill="#44fff1" marker-start="none" marker-end="none"/>
   <path d="M 90.055,192.927 L 103.037,175.588 L 80.403,161.526 L 65.884,170.822 L 90.055,192.927 Z" stroke-linejoin="miter" stroke-width="0.325" fill="#44fff1" marker-start="none" marker-end="none"/>
   <g id="Group_1" fill-rule="nonzero" stroke-linejoin="round" stroke-linecap="round" stroke-width="0.805" fill="#ffffff">
    <path d="M 136.701,201.649 C 135.39,201.649 134.268,202.117 133.333,203.051 C 132.398,203.987 131.931,205.108 131.931,206.42 L 131.931,208.58 L 136.927,208.58 L 136.927,207.74 C 136.927,207.031 136.927,206.677 136.927,206.677 C 136.927,206.677 137.282,206.677 137.991,206.677 L 149.012,206.677 C 149.722,206.677 150.077,206.677 150.077,206.677 C 150.077,206.677 150.077,207.031 150.077,207.74 L 150.077,209.675 C 150.077,210.384 150.077,210.738 150.077,210.738 C 150.077,210.738 149.722,210.738 149.012,210.738 L 136.701,210.738 C 135.39,210.738 134.268,211.206 133.333,212.141 C 132.398,213.075 131.931,214.198 131.931,215.509 L 131.931,220.085 C 131.931,221.397 132.398,222.518 133.333,223.453 C 134.268,224.388 135.39,224.855 136.701,224.855 L 150.367,224.855 C 151.656,224.855 152.774,224.388 153.719,223.453 C 154.664,222.518 155.137,221.397 155.137,220.085 L 155.137,217.926 L 150.077,217.926 L 150.077,218.764 C 150.077,219.473 150.077,219.828 150.077,219.828 C 150.077,219.828 149.722,219.828 149.012,219.828 L 137.991,219.828 C 137.282,219.828 136.927,219.828 136.927,219.828 C 136.927,219.828 136.927,219.473 136.927,218.764 L 136.927,216.83 C 136.927,216.121 136.927,215.765 136.927,215.765 C 136.927,215.765 137.282,215.765 137.991,215.765 L 150.367,215.765 C 151.656,215.765 152.774,215.299 153.719,214.364 C 154.664,213.43 155.137,212.307 155.137,210.996 L 155.137,206.42 C 155.137,205.108 154.664,203.987 153.719,203.051 C 152.774,202.117 151.656,201.649 150.367,201.649 L 136.701,201.649 Z" marker-start="none" marker-end="none"/>
    <path d="M 160.054,201.649 L 160.054,224.855 L 164.984,224.855 L 164.984,201.649 L 160.054,201.649 Z" marker-start="none" marker-end="none"/>
    <path d="M 168.539,201.649 L 168.539,224.822 L 186.942,224.822 C 188.253,224.822 189.381,224.35 190.327,223.405 C 191.272,222.46 191.745,221.342 191.745,220.052 L 191.745,214.058 C 191.745,212.769 191.272,211.651 190.327,210.706 C 189.381,209.761 188.253,209.288 186.942,209.288 L 186.716,209.288 L 191.745,203.358 L 191.745,201.649 L 186.588,201.649 L 180.174,209.288 L 173.534,209.256 L 173.534,201.649 L 168.539,201.649 Z M 174.598,214.316 L 185.621,214.316 C 186.33,214.316 186.684,214.316 186.684,214.316 C 186.684,214.316 186.684,214.67 186.684,215.379 L 186.684,218.764 C 186.684,219.473 186.684,219.828 186.684,219.828 C 186.684,219.828 186.33,219.828 185.621,219.828 L 174.598,219.828 C 173.889,219.828 173.534,219.828 173.534,219.828 C 173.534,219.828 173.534,219.473 173.534,218.764 L 173.534,215.379 C 173.534,214.67 173.534,214.316 173.534,214.316 C 173.534,214.316 173.889,214.316 174.598,214.316 Z" marker-start="none" marker-end="none"/>
    <path d="M 196.534,201.649 L 196.534,224.855 L 201.464,224.855 L 201.464,201.649 L 196.534,201.649 Z" marker-start="none" marker-end="none"/>
    <path d="M 209.758,201.649 C 208.446,201.649 207.324,202.117 206.389,203.051 C 205.455,203.987 204.987,205.108 204.987,206.42 L 204.987,224.855 L 209.983,224.855 L 209.983,207.74 C 209.983,207.031 209.983,206.677 209.983,206.677 C 209.983,206.677 210.338,206.677 211.047,206.677 L 222.07,206.677 C 222.779,206.677 223.133,206.677 223.133,206.677 C 223.133,206.677 223.133,207.031 223.133,207.74 L 223.133,224.855 L 228.193,224.855 L 228.193,206.42 C 228.193,205.108 227.721,203.987 226.775,203.051 C 225.83,202.117 224.712,201.649 223.423,201.649 L 209.758,201.649 Z" marker-start="none" marker-end="none"/>
    <path d="M 237.944,201.649 C 236.633,201.649 235.511,202.117 234.576,203.051 C 233.641,203.987 233.174,205.108 233.174,206.42 L 233.174,208.58 L 238.17,208.58 L 238.17,207.74 C 238.17,207.031 238.17,206.677 238.17,206.677 C 238.17,206.677 238.524,206.677 239.233,206.677 L 250.256,206.677 C 250.965,206.677 251.32,206.677 251.32,206.677 C 251.32,206.677 251.32,207.031 251.32,207.74 L 251.32,209.675 C 251.32,210.384 251.32,210.738 251.32,210.738 C 251.32,210.738 250.965,210.738 250.256,210.738 L 237.944,210.738 C 236.633,210.738 235.511,211.206 234.576,212.141 C 233.641,213.075 233.174,214.198 233.174,215.509 L 233.174,220.085 C 233.174,221.397 233.641,222.518 234.576,223.453 C 235.511,224.388 236.633,224.855 237.944,224.855 L 251.609,224.855 C 252.898,224.855 254.016,224.388 254.962,223.453 C 255.907,222.518 256.38,221.397 256.38,220.085 L 256.38,217.926 L 251.32,217.926 L 251.32,218.764 C 251.32,219.473 251.32,219.828 251.32,219.828 C 251.32,219.828 250.965,219.828 250.256,219.828 L 239.233,219.828 C 238.524,219.828 238.17,219.828 238.17,219.828 C 238.17,219.828 238.17,219.473 238.17,218.764 L 238.17,216.83 C 238.17,216.121 238.17,215.765 238.17,215.765 C 238.17,215.765 238.524,215.765 239.233,215.765 L 251.609,215.765 C 252.898,215.765 254.016,215.299 254.962,214.364 C 255.907,213.43 256.38,212.307 256.38,210.996 L 256.38,206.42 C 256.38,205.108 255.907,203.987 254.962,203.051 C 254.016,202.117 252.898,201.649 251.609,201.649 L 237.944,201.649 Z" marker-start="none" marker-end="none"/>
   </g>
   <text xml:space="preserve" transform="translate(130.071 172.091) scale(1 -1)" kerning="auto" font-size="32.062" stroke-linecap="round" stroke-linejoin="round" stroke-width="0.801" fill="#ffffff"><tspan x="0" y="0">EXPLORER</tspan></text>
  </g>
 </g>
</svg>
