<svg xmlns="http://www.w3.org/2000/svg" width="1253" height="308" viewBox="0 0 1253 308" version="1.1"><path d="M 243.814 130.835 C 235.737 137.801, 229.099 143.876, 229.064 144.335 C 228.932 146.057, 269.510 198.244, 269.806 196.735 C 270.149 194.990, 260.411 125.012, 259.244 120.835 C 258.512 118.213, 258.268 118.371, 243.814 130.835 M 144.954 222.250 C 117.732 247.137, 95.243 267.913, 94.980 268.419 C 94.716 268.924, 108.100 278.065, 124.723 288.733 L 154.946 308.128 201.973 278.900 C 227.838 262.825, 249 249.293, 249 248.829 C 249 247.711, 195.940 177, 195.101 177 C 194.743 177, 172.177 197.363, 144.954 222.250" stroke="none" fill="#44fff1" fill-rule="evenodd"/><path d="M 123.215 1.761 C 121.408 2.660, 120.058 3.896, 120.215 4.506 C 120.372 5.116, 138.725 27.950, 161 55.246 C 186.193 86.120, 202.012 104.708, 202.854 104.430 C 203.599 104.184, 212.300 98.078, 222.189 90.862 C 236.814 80.190, 239.921 77.510, 238.835 76.504 C 236.819 74.637, 129.016 0.932, 127.669 0.501 C 127.026 0.295, 125.022 0.862, 123.215 1.761" stroke="none" fill="#64abff" fill-rule="evenodd"/><path d="M 35.507 41.588 C 16.811 50.112, 1.163 57.437, 0.734 57.866 C -0.013 58.613, 8.399 212.733, 9.233 213.566 C 9.699 214.032, 156.942 125.757, 156.961 125 C 156.983 124.119, 71.539 26.638, 70.500 26.358 C 69.950 26.211, 54.203 33.064, 35.507 41.588" stroke="none" fill="#0049e3" fill-rule="evenodd"/><path d="" stroke="none" fill="#2594ec" fill-rule="evenodd"/><path d="M 383.585 44.216 C 378.031 45.721, 371.639 52.407, 370.168 58.249 C 368.717 64.009, 368.648 83.194, 370.060 88.277 C 371.425 93.193, 376.450 98.845, 381.491 101.135 C 385.077 102.764, 388.638 102.958, 415.250 102.978 L 445 103 445 111 L 445 119 418 119 L 391 119 391 115 L 391 111 380 111 L 369 111 369.006 116.750 C 369.009 119.912, 369.510 124.299, 370.121 126.497 C 371.569 131.714, 378.286 138.431, 383.503 139.879 C 388.927 141.385, 447.073 141.385, 452.497 139.879 C 457.714 138.431, 464.431 131.714, 465.879 126.497 C 467.295 121.397, 467.322 100.700, 465.919 95.649 C 464.517 90.597, 457.670 83.809, 452.384 82.230 C 449.544 81.381, 439.393 81, 419.634 81 L 391 81 391 73 L 391 65 418 65 L 445 65 445 69 L 445 73 456 73 L 467 73 467 67.149 C 467 56.916, 463.224 49.767, 455.692 45.741 C 451.623 43.566, 450.564 43.495, 419.500 43.328 C 399.515 43.220, 386.030 43.554, 383.585 44.216 M 486.472 44.215 C 486.201 44.922, 486.096 66.875, 486.240 93 L 486.500 140.500 497.260 140.784 L 508.019 141.068 507.760 92.284 L 507.500 43.500 497.232 43.215 C 489.578 43.002, 486.839 43.257, 486.472 44.215 M 638.472 44.215 C 638.201 44.922, 638.096 66.875, 638.240 93 L 638.500 140.500 649.260 140.784 L 660.019 141.068 659.760 92.284 L 659.500 43.500 649.232 43.215 C 641.578 43.002, 638.839 43.257, 638.472 44.215 M 674.219 85.415 L 674.500 127.830 677.500 132.076 C 683.322 140.316, 684.041 140.460, 721 140.790 C 757.066 141.112, 758.647 140.895, 764.975 134.733 C 771.021 128.846, 771 129.022, 771 83.998 L 771 42.932 760.250 43.216 L 749.500 43.500 749.238 81.250 L 748.976 119 721.988 119 L 695 119 695 81 L 695 43 684.469 43 L 673.938 43 674.219 85.415 M 805.636 44.198 C 800.424 45.620, 793.504 52.426, 792.110 57.500 C 791.506 59.700, 791.019 67.125, 791.028 74 C 791.046 87.859, 792.275 92.181, 797.624 97.197 C 803.533 102.738, 805.334 103, 837.468 103 L 867 103 867 111 L 867 119 840 119 L 813 119 813 115 L 813 111 802 111 L 791 111 791.022 117.750 C 791.047 125.446, 793.149 131.001, 797.624 135.197 C 803.576 140.778, 805.172 141, 839.218 140.994 C 858.340 140.991, 871.997 140.573, 874.351 139.919 C 876.584 139.299, 880.009 137.043, 882.501 134.551 C 888.070 128.983, 889.375 123.489, 888.820 107.950 C 888.357 95.001, 886.561 90.035, 880.759 85.656 C 875.236 81.488, 871.187 81.011, 841.250 81.006 L 813 81 813 73 L 813 65 840 65 L 867 65 867 69 L 867 73 878.144 73 L 889.289 73 888.719 65.465 C 887.992 55.852, 884.902 50.202, 878.223 46.277 L 873.500 43.500 841.500 43.322 C 821.598 43.211, 808.039 43.543, 805.636 44.198 M 522 92.469 L 522 141 532.500 141 L 543 141 543 125 L 543 109 556.772 109 L 570.545 109 583.938 125 L 597.331 141 608.165 141 L 619 141 618.950 136.750 C 618.903 132.844, 618.103 131.572, 609.060 121.019 L 599.221 109.538 603.540 108.442 C 609.373 106.960, 614.359 102.955, 616.898 97.711 C 618.790 93.802, 618.998 91.628, 618.984 75.934 C 618.965 56.194, 618.231 53.696, 610.658 47.595 L 606.816 44.500 564.408 44.219 L 522 43.938 522 92.469 M 543 76 L 543 87 570 87 L 597 87 597 76 L 597 65 570 65 L 543 65 543 76 M 369 215.500 L 369 264 414 264 L 459 264 459 253 L 459 242 425 242 L 391 242 391 234 L 391 226 418.500 226 L 446 226 446 215.500 L 446 205 418.500 205 L 391 205 391 197 L 391 189 425 189 L 459 189 459 178 L 459 167 414 167 L 369 167 369 215.500 M 476.007 170.750 C 476.013 174.140, 477.644 176.439, 493.007 194.700 C 502.353 205.810, 510 215.159, 510 215.475 C 510 215.791, 502.350 225.214, 493 236.413 C 477.896 254.505, 476 257.179, 476 260.388 L 476 264 487.250 263.972 L 498.500 263.943 511.404 248.472 C 518.502 239.962, 524.437 233, 524.593 233 C 524.749 233, 530.783 239.975, 538 248.500 L 551.123 264 562.061 264 L 573 264 573 259.989 C 573 256.253, 571.834 254.600, 555.982 235.863 C 541.305 218.514, 539.139 215.525, 540.232 214.127 C 540.930 213.236, 548.587 204.045, 557.250 193.702 C 571.749 176.391, 573 174.584, 573 170.949 L 573 167 562.085 167 L 551.170 167 538.474 182.250 C 531.492 190.637, 525.457 197.624, 525.064 197.775 C 524.672 197.926, 518.534 191.076, 511.425 182.553 L 498.500 167.057 487.250 167.028 L 476 167 476.007 170.750 M 592 215.500 L 592 264 603 264 L 614 264 614 248 L 614 232 644.040 232 C 671.601 232, 674.386 231.843, 677.790 230.097 C 687.330 225.205, 689 220.647, 689 199.500 C 689 181.425, 688.391 178.613, 683.390 173.607 C 676.858 167.068, 676.689 167.046, 632.250 167.022 L 592 167 592 215.500 M 704 215.500 L 704 264 752.500 264 L 801 264 801 253 L 801 242 763.500 242 L 726 242 726 204.500 L 726 167 715 167 L 704 167 704 215.500 M 826.500 168.896 C 824.300 169.914, 821.286 172.042, 819.803 173.624 C 814.212 179.587, 814 181.123, 814 215.772 L 814 247.607 816.533 252.691 C 818.116 255.867, 820.616 258.848, 823.198 260.637 L 827.329 263.500 862.566 263.500 L 897.803 263.500 902.149 260.352 C 904.540 258.620, 907.531 255.246, 908.796 252.854 C 911.084 248.526, 911.094 248.336, 910.798 214.415 L 910.500 180.325 907.637 176.196 C 905.849 173.617, 902.865 171.115, 899.691 169.533 L 894.607 167 862.554 167.022 C 833.489 167.042, 830.127 167.217, 826.500 168.896 M 931 215.500 L 931 264 942 264 L 953 264 953 248 L 953 232 966.250 232.062 L 979.500 232.124 992.803 248.062 L 1006.107 264 1017.053 264 L 1028 264 1028 260.197 C 1028 256.829, 1026.840 255.026, 1017.870 244.447 L 1007.740 232.500 1011.215 231.933 C 1016.353 231.094, 1021.089 227.949, 1024.486 223.120 L 1027.500 218.836 1027.818 201.740 C 1028.077 187.804, 1027.836 183.858, 1026.510 180.386 C 1024.515 175.163, 1018.444 169.495, 1013.321 168.072 C 1010.928 167.408, 994.835 167.009, 970.250 167.006 L 931 167 931 215.500 M 1048 215.500 L 1048 264 1092.500 264 L 1137 264 1137 253 L 1137 242 1103.500 242 L 1070 242 1070 234 L 1070 226 1097 226 L 1124 226 1124 215.500 L 1124 205 1097 205 L 1070 205 1070 197 L 1070 189 1103.500 189 L 1137 189 1137 178 L 1137 167 1092.500 167 L 1048 167 1048 215.500 M 1156 215.534 L 1156 264.068 1166.750 263.784 L 1177.500 263.500 1177.775 247.750 L 1178.051 232 1191.275 232.062 L 1204.500 232.124 1217.803 248.062 L 1231.107 264 1242.053 264 L 1253 264 1253 260.197 C 1253 256.829, 1251.840 255.026, 1242.870 244.447 L 1232.740 232.500 1236.430 231.898 C 1241.638 231.047, 1247.942 226.265, 1250.673 221.093 C 1252.842 216.985, 1252.999 215.556, 1252.978 200.093 C 1252.960 186.210, 1252.659 182.845, 1251.135 179.491 C 1248.845 174.450, 1243.193 169.425, 1238.277 168.060 C 1235.938 167.411, 1219.553 167.009, 1195.250 167.006 L 1156 167 1156 215.534 M 614 200 L 614 211 640.500 211 L 667 211 667 200 L 667 189 640.500 189 L 614 189 614 200 M 836 215.500 L 836 242 862.500 242 L 889 242 889 215.500 L 889 189 862.500 189 L 836 189 836 215.500 M 953 200 L 953 211 979.500 211 L 1006 211 1006 200 L 1006 189 979.500 189 L 953 189 953 200 M 1178 200 L 1178 211 1204.500 211 L 1231 211 1231 200 L 1231 189 1204.500 189 L 1178 189 1178 200" stroke="none" fill="#fcfcfc" fill-rule="evenodd"/></svg>