<svg xmlns="http://www.w3.org/2000/svg" xmlns:xlink="http://www.w3.org/1999/xlink" version="1.1" width="1000" height="1000" viewBox="0 0 1000 1000" xml:space="preserve">
<desc>Created with Fabric.js 3.5.0</desc>
<defs>
</defs>
<rect x="0" y="0" width="100%" height="100%" fill="rgba(255,255,255,0)"/>
<g transform="matrix(0.9281 0 0 0.9281 499.9929 499.9929)" id="414643">
<g style="" vector-effect="non-scaling-stroke">
		<g transform="matrix(1.3333 0 0 -1.3333 -217.6893 -112.9373)" id="Group">
<path style="stroke: none; stroke-width: 3.42; stroke-dasharray: none; stroke-linecap: butt; stroke-dashoffset: 0; stroke-linejoin: miter; stroke-miterlimit: 10; is-custom-font: none; font-file-url: none; fill: rgb(0,73,227); fill-rule: evenodd; opacity: 1;" transform=" translate(-511.738, -759.697)" d="M 491.439 997.408 L 709.976 746.914 L 335.905 521.986 L 313.5 916.487 L 491.439 997.408 Z" stroke-linecap="round"/>
</g>
		<g transform="matrix(1.3333 0 0 -1.3333 123.9675 -340.4418)" id="Group">
<path style="stroke: none; stroke-width: 3.42; stroke-dasharray: none; stroke-linecap: butt; stroke-dashoffset: 0; stroke-linejoin: miter; stroke-miterlimit: 10; is-custom-font: none; font-file-url: none; fill: rgb(100,171,255); fill-rule: evenodd; opacity: 1;" transform=" translate(-767.9795, -930.328)" d="M 635.224 1062.77 L 920.373 867.269 L 825.091 797.886 L 615.586 1053.83 L 635.224 1062.77 Z" stroke-linecap="round"/>
</g>
		<g transform="matrix(1.3333 0 0 -1.3333 97.4261 300.2111)" id="Group">
<path style="stroke: none; stroke-width: 3.42; stroke-dasharray: none; stroke-linecap: butt; stroke-dashoffset: 0; stroke-linejoin: miter; stroke-miterlimit: 10; is-custom-font: none; font-file-url: none; fill: rgb(68,255,241); fill-rule: evenodd; opacity: 1;" transform=" translate(-748.0745, -449.8375)" d="M 807.137 615.625 L 944.227 432.53 L 705.23 284.05 L 551.922 382.214 L 807.137 615.625 Z" stroke-linecap="round"/>
</g>
</g>
</g>
</svg>